<?xml version="1.0" encoding="UTF-8"?>
<!DOCTYPE svg PUBLIC "-//W3C//DTD SVG 1.1//EN" "http://www.w3.org/Graphics/SVG/1.1/DTD/svg11.dtd">
<!-- Creator: CorelDRAW X7 -->
<svg xmlns="http://www.w3.org/2000/svg" xml:space="preserve" width="297mm" height="210mm" version="1.1" style="shape-rendering:geometricPrecision; text-rendering:geometricPrecision; image-rendering:optimizeQuality; fill-rule:evenodd; clip-rule:evenodd"
viewBox="0 0 29700 21000"
 xmlns:xlink="http://www.w3.org/1999/xlink">
 <defs>
  <style type="text/css">
   <![CDATA[
    .fil0 {fill:#FFED00}
   ]]>
  </style>
 </defs>
 <g id="Ebene_x0020_1">
  <metadata id="CorelCorpID_0Corel-Layer"/>
  <path class="fil0" d="M16631 4567l-8 22 -14 0 32 -93 24 0 33 93 -22 0 -8 -22 -37 0zm33 -14l-14 -40 -14 40 28 0zm103 31c0,0 -2,1 -7,3 -5,1 -10,2 -17,2 -16,0 -28,-4 -34,-12 -6,-8 -10,-21 -10,-38 1,-9 2,-17 5,-24 2,-6 6,-11 12,-14 6,-4 14,-6 24,-6 6,0 11,1 16,1 4,1 8,2 10,3l4 15c-2,-1 -5,-2 -10,-4 -4,-2 -9,-3 -16,-3 -8,0 -14,3 -17,9 -3,6 -4,14 -4,23 0,7 0,13 1,18 0,6 2,10 5,14 3,4 7,6 12,6 6,0 11,0 15,-1 4,-2 7,-3 10,-4 2,-2 3,-2 3,-2 0,0 0,0 0,0l-2 14z"/>
  <path class="fil0" d="M16819 4520c8,3 16,5 24,7 7,2 14,6 20,11 6,5 9,13 9,23 0,10 -2,19 -5,25 -3,6 -8,11 -14,14 -6,3 -13,4 -22,5 -2,0 -5,0 -9,0l-17 0 -14 0 -184 -1 0 -6 182 0 16 0 6 0c13,0 26,-8 29,-12 2,-4 6,-10 5,-17 0,-9 -5,-14 -10,-17 -4,-3 -12,-5 -23,-8 -11,-2 -19,-5 -24,-10 -6,-4 -8,-12 -8,-24 0,-7 2,-13 5,-18 4,-4 9,-8 15,-10 6,-3 13,-4 20,-4l30 0 257 -1 0 6 -266 1c-7,0 -25,1 -32,9 -3,4 -4,9 -3,13 0,9 8,13 13,14z"/>
  <path class="fil0" d="M16923 4592l0 -7c0,1 -2,3 -5,4 -3,2 -8,3 -15,3 -6,0 -11,-2 -15,-5 -4,-2 -6,-7 -6,-13 0,-7 2,-12 7,-15 5,-4 12,-6 21,-6 5,-1 8,-2 11,-4 2,-2 3,-4 3,-6 0,-3 -1,-5 -3,-6 -2,-2 -5,-3 -9,-3 -8,0 -14,1 -18,4 -4,3 -7,5 -8,7l2 -13c0,0 1,-1 3,-2 2,-1 5,-2 9,-3 4,-1 8,-2 13,-2 10,0 18,2 22,5 5,4 7,9 7,14l0 48 -19 0zm-9 -11c6,-1 9,-4 9,-8l0 -15c0,0 0,1 0,2 -1,1 -2,1 -3,2 -2,1 -4,2 -7,2 -5,1 -9,2 -12,3 -3,2 -4,5 -4,9 0,4 4,6 11,6 2,0 4,0 6,-1zm36 11l0 -67 19 0 0 9c0,0 0,-1 1,-2 0,-1 2,-2 3,-3 1,0 3,-1 6,-2 2,-1 5,-2 9,-2 3,0 5,0 6,1l2 9c-3,0 -5,-1 -7,-1 -4,0 -8,1 -10,3 -4,1 -6,4 -8,6 -2,3 -2,6 -2,8l0 41 -19 0zm79 -58l0 38c0,4 1,7 3,9 2,1 5,1 9,1l1 10c-1,0 -2,0 -3,0 -1,0 -2,0 -3,0 -9,0 -15,-1 -19,-4 -5,-3 -7,-9 -7,-17l0 -37 -12 0 0 -9 12 0 0 -26 19 0 0 26 13 0 0 9 -13 0zm33 8c0,2 3,4 7,5 5,2 9,3 14,4 5,1 9,3 13,6 3,2 5,6 5,12 0,8 -2,14 -6,17 -5,4 -11,6 -19,7 -1,0 -3,0 -5,0 -6,0 -11,-1 -15,-1 -4,-1 -7,-2 -8,-3l-3 -11c2,1 4,2 8,3 4,2 9,3 14,3 6,0 10,-1 12,-3 2,-2 3,-4 4,-8 0,-4 -2,-7 -5,-9 -3,-1 -8,-2 -14,-4 -7,-1 -12,-3 -15,-5 -3,-3 -5,-7 -5,-13 0,-11 9,-17 25,-17 1,0 2,0 3,0 1,-1 1,-1 2,-1 6,0 10,1 14,2 4,1 6,1 8,2l3 11c-2,-1 -4,-2 -8,-3 -4,-2 -9,-2 -15,-2 -4,0 -7,0 -10,1 -2,1 -4,3 -4,7z"/>
 </g>
</svg>
